<svg width="168" height="41" viewBox="0 0 168 41" fill="none" xmlns="http://www.w3.org/2000/svg">
<path transform="translate(49.277 11.792)" d="M0 17.16L11.952 17.16L11.952 13.56L4.248 13.56L4.248 0L0 0L0 17.16Z" fill="#82868e"/>
<path transform="translate(61.759 16.328)" d="M6.552 10.224C4.848 10.224 3.96 8.736 3.96 6.504C3.96 4.272 4.848 2.76 6.552 2.76C8.256 2.76 9.168 4.272 9.168 6.504C9.168 8.736 8.256 10.224 6.552 10.224ZM6.576 13.008C10.536 13.008 13.128 10.2 13.128 6.504C13.128 2.808 10.536 0 6.576 0C2.64 0 0 2.808 0 6.504C0 10.2 2.64 13.008 6.576 13.008Z" fill="#82868e"/>
<path transform="translate(75.478 16.304)" d="M6.264 16.896C8.088 16.896 9.696 16.488 10.776 15.528C11.76 14.64 12.408 13.296 12.408 11.448L12.408 0.360001L8.664 0.360001L8.664 1.68L8.616 1.68C7.896 0.648 6.792 0 5.16 0C2.112 0 0 2.544 0 6.144C0 9.912 2.568 11.976 5.328 11.976C6.816 11.976 7.752 11.376 8.472 10.56L8.568 10.56L8.568 11.784C8.568 13.272 7.872 14.136 6.216 14.136C4.92 14.136 4.272 13.584 4.056 12.936L0.264 12.936C0.648 15.504 2.88 16.896 6.264 16.896ZM6.24001 9.072C4.77601 9.072 3.816 7.872 3.816 6.024C3.816 4.152 4.77601 2.952 6.24001 2.952C7.87201 2.952 8.736 4.344 8.736 6C8.736 7.728 7.94401 9.072 6.24001 9.072Z" fill="#82868e"/>
<path transform="translate(89.031 16.328)" d="M6.552 10.224C4.848 10.224 3.96 8.736 3.96 6.504C3.96 4.272 4.848 2.76 6.552 2.76C8.256 2.76 9.168 4.272 9.168 6.504C9.168 8.736 8.256 10.224 6.552 10.224ZM6.576 13.008C10.536 13.008 13.1275 10.2 13.1275 6.504C13.1275 2.808 10.536 0 6.576 0C2.64 0 0 2.808 0 6.504C0 10.2 2.64 13.008 6.576 13.008Z" fill="#82868e"/>
<path transform="translate(103.302 11.792)" d="M0 17.16L3.91199 17.16L3.91199 4.872L0 4.872L0 17.16ZM0 3.168L3.91199 3.168L3.91199 0L0 0L0 3.168Z" fill="#82868e"/>
<path transform="translate(108.911 16.304)" d="M0 16.704L3.91199 16.704L3.91199 11.376L3.96 11.376C4.728 12.408 5.85599 13.032 7.43999 13.032C10.656 13.032 12.792 10.488 12.792 6.504C12.792 2.808 10.8 0 7.536 0C5.856 0 4.65599 0.744 3.81599 1.848L3.744 1.848L3.744 0.360001L0 0.360001L0 16.704ZM6.432 10.008C4.752 10.008 3.792 8.64 3.792 6.648C3.792 4.656 4.656 3.144 6.36 3.144C8.04 3.144 8.83199 4.536 8.83199 6.648C8.83199 8.736 7.92 10.008 6.432 10.008Z" fill="#82868e"/>
<path transform="translate(122.096 16.304)" d="M5.97601 13.032C9.19201 13.032 11.568 11.64 11.568 8.952C11.568 5.808 9.02401 5.256 6.86401 4.896C5.30401 4.608 3.912 4.488 3.912 3.624C3.912 2.856 4.656 2.496 5.616 2.496C6.696 2.496 7.43999 2.832 7.58399 3.936L11.184 3.936C10.992 1.512 9.12 0 5.64 0C2.736 0 0.335999 1.344 0.335999 3.936C0.335999 6.816 2.616 7.392 4.752 7.752C6.384 8.04 7.872 8.16 7.872 9.264C7.872 10.056 7.128 10.488 5.952 10.488C4.656 10.488 3.84 9.888 3.696 8.664L0 8.664C0.12 11.376 2.37601 13.032 5.97601 13.032Z" fill="#82868e"/>
<path transform="translate(134.658 16.664)" d="M4.31999 12.648C6.02399 12.648 7.10399 11.976 7.99199 10.776L8.064 10.776L8.064 12.288L11.808 12.288L11.808 0L7.896 0L7.896 6.864C7.896 8.328 7.07999 9.336 5.73599 9.336C4.48799 9.336 3.888 8.592 3.888 7.248L3.888 0L0 0L0 8.064C0 10.8 1.48799 12.648 4.31999 12.648Z" fill="#82868e"/>
<path transform="translate(148.168 16.304)" d="M0 12.648L3.912 12.648L3.912 5.76C3.912 4.296 4.632 3.264 5.856 3.264C7.032 3.264 7.584 4.032 7.584 5.352L7.584 12.648L11.496 12.648L11.496 5.76C11.496 4.296 12.192 3.264 13.44 3.264C14.616 3.264 15.168 4.032 15.168 5.352L15.168 12.648L19.08 12.648L19.08 4.656C19.08 1.896 17.688 0 14.904 0C13.32 0 12 0.672 11.04 2.16L10.992 2.16C10.368 0.84 9.144 0 7.536 0C5.76 0 4.58399 0.840001 3.81599 2.112L3.744 2.112L3.744 0.360001L0 0.360001L0 12.648Z" fill="#82868e"/>
<path transform="translate(0.317 0.923)" d="M25.0925 1.05386L21.1595 0L17.8451 12.3696L14.8528 1.20224L10.9197 2.2561L14.1527 14.3216L6.10008 6.26898L3.22089 9.14817L12.0536 17.981L1.05386 15.0336L0 18.9666L12.0186 22.187C11.881 21.5935 11.8082 20.9751 11.8082 20.3397C11.8082 15.8421 15.4542 12.1961 19.9518 12.1961C24.4494 12.1961 28.0954 15.8421 28.0954 20.3397C28.0954 20.971 28.0235 21.5856 27.8876 22.1756L38.8103 25.1023L39.8641 21.1693L27.7977 17.9361L38.7982 14.9885L37.7443 11.0555L25.6784 14.2885L33.731 6.23592L30.8518 3.35673L22.1416 12.067L25.0925 1.05386Z" fill="#82868e"/>
<path transform="translate(26.168 23.144)" d="M2.0259 0C1.6887 1.4256 0.9768 2.7063 0 3.7324L7.913 11.6455L10.7922 8.7663L2.0259 0Z" fill="#82868e"/>
<path transform="translate(22.449 26.96)" d="M3.6389 0C2.6503 1.0097 1.401 1.7632 0 2.1515L2.8794 12.8975L6.8124 11.8436L3.6389 0Z" fill="#82868e"/>
<path transform="translate(15.215 29.113)" d="M7.0875 0.0370007C6.4375 0.204101 5.7562 0.2929 5.0541 0.2929C4.3019 0.2929 3.5735 0.1909 2.882 0L0 10.7558L3.933 11.8096L7.0875 0.0370007Z" fill="#82868e"/>
<path transform="translate(6.45 26.89)" d="M11.5076 2.1833C10.128 1.7757 8.90088 1.0126 7.93248 0L0 7.9325L2.87919 10.8117L11.5076 2.1833Z" fill="#82868e"/>
<path transform="translate(1.384 23.134)" d="M12.9335 3.6862C11.9817 2.6672 11.2884 1.4036 10.9584 0L0 2.9363L1.05385 6.8693L12.9335 3.6862Z" fill="#82868e"/>
</svg>
